<?xml version="1.0" encoding="utf-8"?>
<svg xml:space="preserve" viewBox="0 0 100 100" y="0" x="0" xmlns="http://www.w3.org/2000/svg" id="圖層_1" version="1.1" style="height: 100%; width: 100%; background: none; shape-rendering: auto;" width="200px" height="200px"><g class="ldl-scale" style="transform-origin: 50% 50%; transform: rotate(0deg) scale(0.8, 0.8);"><g class="ldl-ani"><g class="ldl-layer"><g class="ldl-ani" style="transform-origin: 50px 50px; opacity: 1; animation: 1.11111s linear -0.694444s infinite normal forwards running blink-a3266b88-25bf-4e5d-a913-bddb9cf60301;"><path stroke-miterlimit="10" stroke-width="3" stroke="#333" fill="#f5e6c8" d="M83.64 15.066c-.038 0-.074-.006-.112-.006H16.472c-1.938 0-3.728.64-5.194 1.708-2.284 1.663-3.778 4.373-3.778 7.39v34.944c0 4.955 4.017 8.846 8.972 8.846h43.756c2.117 8.5 7.991 14.439 16.216 16.992V67.949h7.083c4.955 0 8.972-3.891 8.972-8.846V24.158c.001-4.917-3.956-9.03-8.859-9.092z" style="fill: rgb(254, 254, 254); stroke: rgb(51, 51, 51);"></path></g></g><g class="ldl-layer"><g class="ldl-ani"><g><g class="ldl-layer"><g class="ldl-ani" style="transform-origin: 50px 50px; opacity: 1; animation: 1.11111s linear -0.833333s infinite normal forwards running blink-a3266b88-25bf-4e5d-a913-bddb9cf60301;"><circle fill="#7a8f7c" r="5.5" cy="41.5" cx="28" style="fill: rgb(20, 125, 193);"></circle></g></g><g class="ldl-layer"><g class="ldl-ani" style="transform-origin: 50px 50px; opacity: 1; animation: 1.11111s linear -0.972222s infinite normal forwards running blink-a3266b88-25bf-4e5d-a913-bddb9cf60301;"><circle fill="#849b87" r="5.5" cy="41.5" cx="50" style="fill: rgb(20, 125, 193);"></circle></g></g><g class="ldl-layer"><g class="ldl-ani" style="transform-origin: 50px 50px; opacity: 1; animation: 1.11111s linear -1.11111s infinite normal forwards running blink-a3266b88-25bf-4e5d-a913-bddb9cf60301;"><circle fill="#96b099" r="5.5" cy="41.5" cx="72" style="fill: rgb(20, 125, 193);"></circle></g></g></g></g></g><metadata xmlns:d="https://loading.io/stock/"><d:name>talk</d:name><d:tags>sending,typing,say,speak,word,talk,conversation</d:tags><d:license>pro</d:license><d:slug>bokygb</d:slug></metadata></g></g><style id="blink-a3266b88-25bf-4e5d-a913-bddb9cf60301" data-anikit="">@keyframes blink-a3266b88-25bf-4e5d-a913-bddb9cf60301 {
  0% { opacity: 1; }
  49.75% { opacity: 1; }
  50.25% { opacity: 0; }
  99.5% { opacity: 0; }
  100% { opacity: 1; }
}</style><!-- [ldio] generated by https://loading.io/ --></svg>